<?xml version="1.0" standalone="no"?>
<!DOCTYPE svg PUBLIC "-//W3C//DTD SVG 20010904//EN"
 "http://www.w3.org/TR/2001/REC-SVG-20010904/DTD/svg10.dtd">
<svg version="1.0" xmlns="http://www.w3.org/2000/svg"
 width="512.000000pt" height="512.000000pt" viewBox="0 0 512.000000 512.000000"
 preserveAspectRatio="xMidYMid meet">
<metadata>
Created by potrace 1.11, written by Peter Selinger 2001-2013
</metadata>
<g transform="translate(0.000000,512.000000) scale(0.100000,-0.100000)"
fill="#000000" stroke="none">
<path d="M2875 4680 c-17 -19 -17 -22 -3 -36 11 -12 25 -14 47 -9 41 9 46 20
19 44 -27 26 -40 26 -63 1z"/>
<path d="M2987 4629 c-18 -10 -18 -12 3 -26 24 -17 70 -10 70 11 0 25 -42 33
-73 15z"/>
<path d="M3491 4594 c0 -11 3 -14 6 -6 3 7 2 16 -1 19 -3 4 -6 -2 -5 -13z"/>
<path d="M2667 4554 c-4 -4 -48 -8 -99 -10 -51 -1 -112 -5 -135 -8 -23 -3 -45
-1 -48 5 -8 12 -65 12 -65 0 0 -5 -10 -12 -22 -16 -13 -3 -32 -10 -43 -15 -61
-28 -106 -37 -152 -30 -27 5 -52 4 -57 -1 -6 -5 -18 -9 -29 -9 -10 0 -28 -5
-40 -12 -12 -6 -35 -13 -52 -15 -69 -7 -85 -11 -97 -20 -7 -6 -40 -13 -72 -15
-39 -3 -63 -10 -71 -21 -7 -10 -17 -17 -24 -17 -14 0 -15 -32 -1 -46 8 -8 -3
-16 -35 -28 -31 -12 -45 -23 -44 -35 3 -32 -2 -40 -37 -61 -28 -18 -45 -21
-78 -17 -30 4 -49 2 -62 -8 -10 -8 -40 -15 -65 -15 -44 0 -48 -2 -93 -60 -26
-33 -52 -76 -57 -95 -13 -47 -35 -68 -59 -55 -21 11 -33 0 -25 -22 3 -7 -8
-22 -24 -33 -33 -23 -32 -25 24 -124 14 -24 25 -48 25 -53 0 -13 -22 -9 -42 9
-30 27 -31 9 -4 -46 14 -28 26 -55 26 -62 0 -19 -24 -4 -40 27 -28 49 -50 42
-106 -33 -87 -115 -88 -117 -74 -159 16 -49 7 -207 -14 -259 -9 -21 -32 -57
-51 -81 -19 -23 -40 -55 -46 -71 -19 -52 -91 -337 -103 -413 -22 -135 -4 -337
51 -560 14 -58 29 -123 33 -145 11 -53 136 -362 162 -397 10 -15 31 -31 46
-34 41 -10 99 -41 105 -57 3 -8 33 -24 67 -37 68 -25 81 -41 56 -69 -23 -25
-20 -48 9 -83 14 -16 23 -34 19 -39 -3 -5 -1 -9 5 -9 6 0 22 -11 36 -26 14
-14 39 -30 55 -36 17 -5 30 -14 30 -19 0 -4 13 -24 30 -42 16 -19 30 -39 30
-44 0 -24 28 -64 52 -74 15 -6 25 -16 22 -21 -7 -12 17 -31 78 -63 54 -29 78
-32 78 -10 0 8 5 15 12 15 15 0 68 -50 68 -64 0 -5 10 -20 23 -34 21 -22 27
-71 15 -122 -8 -35 19 -19 40 24 13 25 28 46 33 46 6 0 27 -11 47 -25 20 -14
40 -25 45 -25 12 0 56 -53 57 -67 0 -16 71 -57 151 -88 34 -14 72 -34 83 -44
33 -32 129 -51 247 -51 118 0 140 4 132 26 -8 21 16 45 36 35 23 -12 228 7
297 28 50 15 60 22 68 47 22 76 24 78 51 60 31 -20 62 -22 46 -3 -17 21 66 77
113 77 29 0 38 5 51 30 9 16 19 30 24 30 8 0 41 24 115 82 17 13 48 25 70 28
36 4 42 9 51 38 11 38 39 40 41 2 2 -44 4 -50 16 -50 26 0 248 160 331 240
188 179 320 358 425 580 22 48 57 111 78 140 60 89 76 142 89 295 3 28 9 84
15 125 30 215 25 318 -31 628 -6 34 -8 78 -5 98 6 29 2 43 -23 81 -17 26 -31
58 -31 72 0 45 -63 204 -101 256 -20 28 -39 60 -43 73 -4 12 -18 34 -30 50
-13 15 -29 39 -37 53 -8 15 -35 59 -61 98 -27 40 -48 76 -48 81 0 6 -5 10 -11
10 -35 0 -149 139 -149 182 0 24 -53 68 -75 62 -13 -3 -30 3 -44 15 -13 12
-30 21 -38 21 -7 0 -31 18 -53 39 -28 27 -53 42 -80 46 -22 4 -51 16 -65 27
-24 19 -25 22 -11 37 21 23 20 38 -1 50 -13 7 -14 13 -6 23 6 7 13 29 17 49 6
36 5 38 -37 58 -24 12 -54 21 -67 21 -13 0 -44 13 -69 29 -25 16 -67 35 -94
42 -26 6 -50 15 -53 20 -3 5 -16 9 -30 9 -13 0 -24 4 -24 8 0 14 -105 29 -131
20 -15 -6 -33 -5 -49 2 -14 7 -50 16 -80 21 -30 5 -80 13 -110 19 -44 8 -57 7
-70 -5 -15 -14 -19 -13 -35 5 -17 19 -55 27 -68 14z m228 -343 c346 -72 641
-234 885 -488 128 -132 210 -247 288 -401 549 -1079 -173 -2360 -1381 -2452
-765 -58 -1483 423 -1726 1158 -63 189 -75 275 -76 517 0 172 4 240 18 310 47
236 154 490 284 675 87 122 281 316 403 403 220 155 481 255 785 301 17 2 118
3 225 1 147 -3 219 -9 295 -24z m1560 -1671 c3 -5 1 -10 -4 -10 -6 0 -11 5
-11 10 0 6 2 10 4 10 3 0 8 -4 11 -10z m-3707 -58 c6 -18 -15 -14 -22 4 -4 10
-1 14 6 12 6 -2 14 -10 16 -16z m2859 -1404 c-3 -7 -5 -2 -5 12 0 14 2 19 5
13 2 -7 2 -19 0 -25z m-702 -238 c-3 -5 -23 -10 -43 -10 -28 0 -33 3 -22 10
20 13 73 13 65 0z m-22 -81 c-22 -23 -46 -18 -36 6 3 8 17 15 31 15 l26 0 -21
-21z m-233 -9 c0 -5 -4 -10 -10 -10 -5 0 -10 5 -10 10 0 6 5 10 10 10 6 0 10
-4 10 -10z m-26 -26 c8 -21 8 -24 -3 -24 -5 0 -11 9 -14 20 -6 24 8 27 17 4z"/>
<path d="M2549 3733 c-90 -131 -279 -406 -421 -612 -143 -205 -258 -377 -256
-381 2 -4 135 -159 297 -344 262 -299 296 -335 310 -322 13 14 19 11 57 -24
52 -48 82 -57 123 -36 31 17 75 81 86 128 11 45 -26 106 -164 263 -73 83 -139
163 -148 179 -20 38 -19 96 3 138 9 18 140 212 291 431 151 219 281 413 289
432 18 43 18 79 0 113 -18 33 -61 75 -101 95 -16 9 -66 52 -110 96 -44 45 -83
81 -87 81 -3 0 -80 -107 -169 -237z"/>
<path d="M2616 2889 c-42 -62 -75 -117 -73 -123 3 -6 95 -114 206 -240 l200
-229 -46 -66 c-25 -36 -129 -187 -231 -336 -102 -148 -237 -344 -299 -434 -63
-89 -115 -167 -116 -171 -1 -5 40 -54 92 -110 76 -83 96 -99 107 -89 12 10 21
6 47 -18 67 -63 111 -66 164 -10 27 27 438 618 660 947 78 115 96 163 83 211
-12 42 -33 67 -262 329 -156 176 -211 232 -252 255 -31 17 -81 60 -116 100
-35 39 -68 76 -74 83 -10 10 -29 -11 -90 -99z"/>
<path d="M840 3332 c0 -5 7 -15 15 -22 8 -7 15 -8 15 -2 0 5 -7 15 -15 22 -8
7 -15 8 -15 2z"/>
<path d="M4550 3034 c0 -9 5 -14 12 -12 18 6 21 28 4 28 -9 0 -16 -7 -16 -16z"/>
<path d="M190 2621 c0 -12 5 -21 10 -21 6 0 10 6 10 14 0 8 -4 18 -10 21 -5 3
-10 -3 -10 -14z"/>
<path d="M1486 634 c-8 -41 11 -71 38 -61 14 6 14 10 0 44 -23 55 -31 59 -38
17z"/>
<path d="M3238 653 c7 -3 16 -2 19 1 4 3 -2 6 -13 5 -11 0 -14 -3 -6 -6z"/>
</g>
</svg>
